Coordinates
version=1
nRows=10
nColumns=63
inDegrees=yes

Units are S.I. units (second, meters, Newtons, ...)
If the header above contains a line with 'inDegrees', this indicates whether rotational values are in degrees (yes) or radians (no).

endheader
time	pelvis_tilt	pelvis_list	pelvis_rotation	pelvis_tx	pelvis_ty	pelvis_tz	hip_flexion_r	hip_adduction_r	hip_rotation_r	knee_angle_r	knee_angle_r_beta	ankle_angle_r	subtalar_angle_r	mtp_angle_r	hip_flexion_l	hip_adduction_l	hip_rotation_l	knee_angle_l	knee_angle_l_beta	ankle_angle_l	subtalar_angle_l	mtp_angle_l	L5_S1_Flex_Ext	L5_S1_Lat_Bending	L5_S1_axial_rotation	L4_L5_Flex_Ext	L4_L5_Lat_Bending	L4_L5_axial_rotation	L3_L4_Flex_Ext	L3_L4_Lat_Bending	L3_L4_axial_rotation	L2_L3_Flex_Ext	L2_L3_Lat_Bending	L2_L3_axial_rotation	L1_L2_Flex_Ext	L1_L2_Lat_Bending	L1_L2_axial_rotation	L1_T12_Flex_Ext	L1_T12_Lat_Bending	L1_T12_axial_rotation	Abs_r3	Abs_r2	Abs_r1	Abs_t1	Abs_t2	neck_flexion	neck_bending	neck_rotation	arm_flex_r	arm_add_r	arm_rot_r	elbow_flex_r	pro_sup_r	wrist_flex_r	wrist_dev_r	arm_flex_l	arm_add_l	arm_rot_l	elbow_flex_l	pro_sup_l	wrist_flex_l	wrist_dev_l
      1.93220339	      5.30508468	     -6.97048588	    112.50700740	      0.03719453	      0.67422991	      0.82717019	      3.66629792	      3.46449949	    -13.62545136	     13.70560241	      0.23920789	     33.25548838	     -1.95184351	      0.00000000	      4.98173853	     -0.78066841	     14.12393363	     10.42314098	      0.18191813	     31.43921905	     -1.52014428	      0.00000000	     -0.00647918	      0.05075304	     -0.72273375	     -0.01203248	      0.06750154	     -0.76790461	     -0.01064464	      0.12340094	     -0.76790461	     -0.00740505	      0.12340094	     -0.63239203	     -0.00601656	      0.10349560	     -0.58722117	     -0.00370220	      0.07861646	     -0.54205031	     -0.04628012	      0.57412854	     -4.01962828	      0.00000000	      0.00000000	     22.57263295	      6.56269276	     27.32146296	     -3.82976489	    -16.77289176	     10.22785896	     47.35319319	     84.47841788	      5.09206199	     16.39730163	     -0.97505709	    -15.99847984	     14.33408616	     37.79951551	     88.29544882	     -8.84007360	     -3.46303663
      1.94915254	      5.35549172	     -7.10944670	    112.11449652	      0.03760659	      0.67385585	      0.82724106	      3.97636433	      3.46336749	    -12.88953874	     13.86308289	      0.24195644	     33.37489551	     -2.26298043	      0.00000000	      5.23955204	     -0.79369539	     13.39956454	     10.71416837	      0.18699751	     31.66152484	     -1.16110477	      0.00000000	      0.00042400	      0.05246718	     -0.62899706	      0.00078742	      0.06978135	     -0.66830938	      0.00069660	      0.12756871	     -0.66830938	      0.00048459	      0.12756871	     -0.55037243	      0.00039373	      0.10699108	     -0.51106011	      0.00024228	      0.08127167	     -0.47174780	      0.00302862	      0.59351927	     -3.49829296	      0.00000000	      0.00000000	     22.62835860	      6.54026204	     26.53417580	     -3.82702850	    -16.57797999	     10.08757062	     48.02162352	     83.77689169	      3.28575488	     15.87039451	     -0.75198722	    -16.01913087	     15.67349894	     36.96427980	     88.27064558	     -8.57277464	     -2.06394903
      1.96610169	      5.32362268	     -7.19068833	    111.49902288	      0.03834248	      0.67363616	      0.82645056	      4.15745131	      3.45286037	    -11.91538260	     13.99629469	      0.24428143	     33.50942790	     -2.60147677	      0.00000000	      5.27754592	     -0.79733604	     12.63214762	     10.89007549	      0.19006767	     31.89154334	     -0.90842732	      0.00000000	     -0.00265313	      0.04681439	     -0.51295685	     -0.00492713	      0.06226313	     -0.54501665	     -0.00435883	      0.11382450	     -0.54501665	     -0.00303226	      0.11382450	     -0.44883724	     -0.00246370	      0.09546389	     -0.41677744	     -0.00151600	      0.07251548	     -0.38471764	     -0.01895105	      0.52957369	     -2.85291210	      0.00000000	      0.00000000	     22.55986256	      6.78145501	     25.91596310	     -3.71149125	    -16.41758902	     10.39550470	     48.41301087	     82.80167948	      1.41824131	     15.25423892	     -0.75951351	    -15.99756841	     16.43579189	     36.35661832	     88.18831529	     -8.35753527	     -0.49931394
      1.98305085	      5.27450787	     -7.20540114	    111.13446541	      0.03840056	      0.67365675	      0.82561904	      4.14874860	      3.41864228	    -11.43017695	     13.97792415	      0.24396080	     33.65976333	     -2.58628869	      0.00000000	      5.26268056	     -0.75088831	     12.30692922	     11.08120454	      0.19340350	     31.94680341	     -0.94913769	      0.00000000	     -0.01304175	      0.04722754	     -0.49078620	     -0.02421983	      0.06281263	     -0.52146034	     -0.02142629	      0.11482905	     -0.52146034	     -0.01490542	      0.11482905	     -0.42943792	     -0.01211057	      0.09630641	     -0.39876379	     -0.00745206	      0.07315547	     -0.36808965	     -0.09315592	      0.53424743	     -2.72960561	      0.00000000	      0.00000000	     22.28779004	      7.18634677	     25.76484591	     -3.28203411	    -16.15311651	     10.59688831	     48.24590816	     82.43266322	      0.84936473	     15.09784285	     -0.92595025	    -15.76323983	     16.60056370	     35.49952663	     88.10806141	     -8.36604788	      0.26300415
      2.00000000	      5.10102104	     -7.16024812	    110.23352597	      0.03936088	      0.67376532	      0.82403749	      4.10007164	      3.44082831	     -9.58016835	     14.06415292	      0.24546577	     33.49815579	     -3.87915399	      0.00000000	      4.98728659	     -0.73883880	     10.73317896	     11.11702403	      0.19402867	     32.22014746	     -0.04770054	      0.00000000	     -0.03051300	      0.03270234	     -0.39257324	     -0.05666570	      0.04349412	     -0.41710907	     -0.05012981	      0.07951248	     -0.41710907	     -0.03487331	      0.07951248	     -0.34350159	     -0.02833438	      0.06668662	     -0.31896576	     -0.01743513	      0.05065593	     -0.29442993	     -0.21795133	      0.36993546	     -2.18337460	      0.00000000	      0.00000000	     21.55490994	      8.03876310	     25.87393644	     -2.70684519	    -16.48218493	     13.36055099	     48.00277172	     78.60775436	     -2.21601799	     13.97055055	     -1.22880670	    -16.03382464	     17.55152580	     35.46962314	     88.10225467	     -8.35882729	      2.99979643
      2.01694915	      5.01849594	     -7.07529068	    109.55179012	      0.03959094	      0.67397506	      0.82241708	      3.88285212	      3.41531107	     -9.06340112	     13.95505358	      0.24356163	     33.49715682	     -3.59473831	      0.00000000	      4.73144926	     -0.71777342	     10.18682804	     11.22047849	      0.19583429	     32.31051141	     -0.21843075	      0.00000000	     -0.03761532	      0.03528195	     -0.36412690	     -0.06985542	      0.04692499	     -0.38688483	     -0.06179822	      0.08578453	     -0.38688483	     -0.04299055	      0.08578453	     -0.31861104	     -0.03492959	      0.07194695	     -0.29585310	     -0.02149340	      0.05465174	     -0.27309517	     -0.26868250	      0.39911648	     -2.02516457	      0.00000000	      0.00000000	     20.26482523	      9.18327892	     26.29656332	     -2.18390180	    -16.30502384	     14.17701798	     47.37017584	     78.29838018	     -2.27954231	     14.20602956	     -1.54988473	    -15.93021981	     18.16533010	     34.54114454	     88.29271318	     -8.39191901	      3.47195797
      2.03389831	      4.83118035	     -6.96885899	    108.71799036	      0.04013639	      0.67425043	      0.82057375	      3.63829680	      3.31573004	     -8.33351067	     13.92013936	      0.24295226	     33.57640260	     -3.40705238	      0.00000000	      4.30383932	     -0.67871170	      8.92028633	     11.11674884	      0.19402387	     32.42609982	      0.44974292	      0.00000000	     -0.05468565	      0.03143071	     -0.35865789	     -0.10155673	      0.04180285	     -0.38107401	     -0.08984306	      0.07642063	     -0.38107401	     -0.06250023	      0.07642063	     -0.31382565	     -0.05078110	      0.06409351	     -0.29140953	     -0.03124738	      0.04868617	     -0.26899342	     -0.39061416	      0.35555049	     -1.99474758	      0.00000000	      0.00000000	     18.61949746	     10.76747491	     27.68878637	     -1.35388167	    -16.72132753	     17.26324096	     46.69091398	     74.91747190	     -3.47646278	     13.72067013	     -1.59132324	    -16.60444195	     22.13166662	     33.59858146	     88.35249028	    -10.13138956	      3.56692978
      2.05084746	      4.63357512	     -6.84467868	    107.93525316	      0.04049245	      0.67460639	      0.81870025	      3.32358660	      3.15028840	     -8.09482868	     13.81223353	      0.24106895	     33.74568024	     -2.61300137	      0.00000000	      3.86924472	     -0.57684469	      8.03991136	     11.04570298	      0.19278389	     32.47062214	      0.61865544	      0.00000000	     -0.07489676	      0.02924301	     -0.32355585	     -0.13909078	      0.03889321	     -0.34377809	     -0.12304789	      0.07110146	     -0.34377809	     -0.08559951	      0.07110146	     -0.28311136	     -0.06954914	      0.05963235	     -0.26288912	     -0.04279601	      0.04529743	     -0.24266688	     -0.53498010	      0.33080281	     -1.79952055	      0.00000000	      0.00000000	     16.98043416	     11.84144349	     27.96215533	     -1.05697591	    -16.79479011	     18.61226396	     46.24547849	     73.51856690	     -3.84117415	     13.80932622	     -0.95748589	    -17.29570872	     28.27389992	     31.77558232	     88.52030083	    -12.15315023	      2.55489778
      2.06779661	      4.49843748	     -6.68546304	    107.20453238	      0.04060208	      0.67515320	      0.81689477	      2.97743185	      3.02934165	     -8.02529863	     13.65890337	      0.23839284	     33.90179398	     -1.67375536	      0.00000000	      3.40749781	     -0.51393625	      7.34482475	     10.92560472	      0.19068778	     32.44306042	      0.60997419	      0.00000000	     -0.09983874	      0.03990983	     -0.20620123	     -0.18541052	      0.05308007	     -0.21908881	     -0.16402507	      0.09703675	     -0.21908881	     -0.11410570	      0.09703675	     -0.18042608	     -0.09271025	      0.08138412	     -0.16753850	     -0.05704786	      0.06182032	     -0.15465092	     -0.71313813	      0.45146795	     -1.14682939	      0.00000000	      0.00000000	     15.62758630	     12.15532764	     26.71133515	     -1.43229433	    -16.87373362	     18.78140741	     46.17334838	     72.49175493	     -4.17907856	     13.64953065	      1.65354281	    -18.06225439	     41.98317214	     28.02134342	     88.59354167	    -16.82899433	     -0.21349124
      2.08474576	      4.98248421	     -6.47323200	    106.33612800	      0.03794124	      0.67663440	      0.81539648	      2.64991593	      3.29222976	     -8.59597898	     13.29753609	      0.23208579	     33.75446391	      0.36703237	      0.00000000	      2.93732284	     -0.81657917	      7.58085688	     10.60201912	      0.18504014	     32.08826844	     -0.89274710	      0.00000000	     -0.10761544	      0.16795032	      0.01413838	     -0.19985264	      0.22337392	      0.01502203	     -0.17680141	      0.40835440	      0.01502203	     -0.12299369	      0.40835440	      0.01237108	     -0.09993170	      0.34248429	      0.01148743	     -0.06149146	      0.26015504	      0.01060378	     -0.76868635	      1.89988759	      0.07863342	      0.00000000	      0.00000000	     14.66325803	     10.77043590	     24.55711858	     -2.52364179	    -17.64781320	     17.59900422	     46.64972387	     72.73171573	     -4.09648160	     13.49486626	      9.69806240	     -9.35932714	    149.31974391	      0.39043072	     36.05192291	    -20.58036216	     -9.54400634
